M48
;FILE_FORMAT=4:2
METRIC,0000.00
;TYPE=PLATED
T01C0.46
T02C0.90
T03C0.97
T04C1.00
T05C1.10
T07C1.60
T08C1.90
T09C2.54
T10C4.00
;TYPE=NON_PLATED
T06C1.50
%
T01
X+021875Y+007400
X+021975Y+008850
X+022000Y+009400
X+021950Y+009525
X+022600Y+007750
X+022350
X+022600Y+008175
X+022350
X+022600Y+007950
X+022350
X+022525Y+009650
Y+009250
X+022550Y+009475
X+022675Y+009750
X+022525Y+010000
Y+010150
Y+010325
X+022625Y+010900
X+023305Y+007860
X+023300Y+008075
X+023500Y+008175
Y+007725
X+023525Y+008475
X+023225Y+009800
X+023000Y+009575
Y+009275
X+022950Y+009800
X+023275Y+009575
Y+009275
X+023450Y+010200
X+023000Y+010325
X+023225Y+010100
X+022950
X+023450Y+010075
X+023350Y+010350
X+023175Y+010325
X+023450Y+011100
X+023500Y+011225
X+023400Y+010975
X+024100Y+008150
X+024300Y+009025
X+023925Y+008975
X+023775Y+009600
X+023825Y+010425
X+023930Y+011140
X+023980Y+010840
X+024275Y+011700
Y+011550
X+024100Y+012850
X+024275Y+012450
X+023975
X+024277Y+012600
X+024100Y+013100
Y+013350
X+024075Y+013600
X+025000Y+009325
X+024975Y+009525
X+024775Y+010100
X+024900
X+025000Y+011300
X+024675Y+012050
X+025625Y+007900
X+025650Y+008725
X+025575Y+010200
X+025250Y+011325
X+025275Y+012075
X+026250Y+008050
X+026525Y+007925
X+026300Y+007830
X+026450Y+008700
X+026400Y+009675
X+026050Y+010225
X+026500Y+011300
X+026025Y+012475
X+026398Y+012480
X+026325Y+013250
X+027075Y+009025
X+027350Y+008900
X+026975Y+008550
X+027225
X+027075Y+008775
X+026875Y+009375
X+027350Y+009775
Y+014700
X+027250Y+015325
X+027725Y+008225
X+028075Y+008550
X+027675Y+008700
X+027550Y+008575
X+027675Y+009000
X+027825Y+010225
X+027600Y+014225
X+028100Y+014175
X+027600Y+014750
X+028100Y+014700
X+027775Y+015750
Y+016625
X+022650Y+009075
X+022695Y+008460
X+022525Y+009850
X+023300Y+009075
X+023500
X+023050
X+023275Y+008325
X+023300Y+007600
X+023375Y+010725
X+023775Y+009225
X+024075Y+008350
X+023850Y+007700
X+023775Y+009950
X+024825Y+011450
X+025400Y+008400
X+025650
X+025725Y+009975
X+026325Y+012975
X+027250Y+009150
X+027050Y+009225
X+026950Y+010675
X+027650Y+009175
X+027525Y+009975
X+027775Y+016775
X+028575Y+009925
X+022825Y+007750
Y+008175
Y+007950
X+023650Y+008175
X+022100Y+009300
X+022075Y+009600
X+022025Y+009725
X+024425Y+009500
X+023700Y+010100
X+023575Y+010075
X+022125Y+010050
X+024425Y+010775
X+024325Y+011150
Y+011275
X+022800Y+011040
X+023550Y+011525
X+024325Y+013500
Y+013225
X+027475Y+008225
X+025100Y+007825
X+026750Y+009525
X+025075Y+010825
X+027500Y+010800
X+025950Y+010775
X+025125Y+011325
X+025146Y+015748
X+022850Y+009075
X+023675
X+024325Y+007675
Y+011425
X+022125Y+009925
X+022850Y+010675
X+024325Y+012975
X+025950Y+008400
X+025100Y+007575
T02
X+024750Y+007958
Y+007450
T03
X+029325Y+008750
X+029075
X+029325Y+009525
X+029075
X+028280Y+013720
X+027518
X+027436Y+012840
X+027690
T04
X+021900Y+007923
Y+008177
X+024003Y+011811
Y+011557
X+024841Y+010414
Y+011176
Y+010922
X+024511Y+011811
Y+011557
X+025527Y+010414
Y+011176
Y+010922
Y+011811
Y+011557
X+026035Y+011811
Y+011557
X+027305Y+010414
Y+011176
Y+010922
X+027051Y+011811
Y+011557
X+027940Y+009652
Y+009398
X+027559Y+011811
Y+011557
X+028575Y+009652
Y+009398
X+024638Y+009144
Y+008890
X+024841Y+010668
X+025527
X+026416Y+009144
Y+008890
X+026100Y+007617
Y+007363
X+027122Y+007366
Y+007620
X+027305Y+010668
X+026619Y+010414
Y+011176
Y+010922
X+025773Y+011050
X+026027
X+026543Y+011811
Y+011557
X+025019Y+011811
Y+011557
X+023875Y+007200
Y+006946
X+022859
Y+007200
X+023113
Y+006946
X+023367Y+007200
Y+006946
X+023621Y+007200
Y+006946
X+022479Y+017399
X+022733
X+026630Y+007617
Y+007363
X+026619Y+010668
X+025400Y+012446
Y+013208
Y+012954
Y+013970
Y+013716
Y+014732
Y+014478
Y+015494
Y+015240
Y+016256
Y+016002
Y+016764
Y+017018
X+026924Y+012446
Y+013208
Y+012954
Y+013970
Y+013716
Y+014732
Y+014478
Y+015494
Y+015240
Y+016256
Y+016002
Y+017018
Y+016764
X+025400Y+014986
Y+014224
Y+013462
Y+012700
Y+017272
Y+016510
Y+015748
X+026924Y+014986
Y+014224
Y+013462
Y+012700
Y+017272
Y+016510
Y+015748
X+021844Y+010924
X+022098
X+027559Y+011049
X+027813
X+021844Y+010670
X+022098
X+027687Y+012240
X+027433
X+028194Y+017018
Y+017272
X+027432
Y+017018
X+028194Y+016256
Y+016510
X+027432
Y+016256
X+028194Y+015494
Y+015748
X+027432
Y+015494
X+028194Y+016002
Y+016764
X+027432
Y+016002
Y+015240
X+028194
X+023368Y+012446
Y+013208
Y+012954
Y+013970
Y+013716
Y+014732
Y+014478
Y+015494
Y+015240
Y+016256
Y+016002
Y+016764
Y+017018
X+024892Y+012446
Y+013208
Y+012954
Y+013970
Y+013716
Y+014732
Y+014478
Y+015494
Y+015240
Y+016256
Y+016002
Y+017018
Y+016764
X+023368Y+014986
Y+014224
Y+013462
Y+012700
Y+017272
Y+016510
Y+015748
X+024892Y+014986
Y+014224
Y+013462
Y+012700
Y+017272
Y+016510
Y+015748
T05
X+026250Y+006850
X+026504
X+027012
X+026758
X+025000
X+025254
X+025762
X+025508
X+022606Y+011684
Y+012446
Y+012192
Y+013208
Y+012954
Y+013970
Y+013716
Y+014732
Y+014478
Y+015494
Y+015240
Y+016256
Y+016002
Y+014224
Y+013462
Y+012700
Y+011938
Y+015748
Y+014986
Y+016510
X+022352Y+011684
Y+012192
Y+012446
Y+012954
Y+013208
Y+013716
Y+013970
Y+014478
Y+014732
Y+015494
Y+015240
Y+016256
Y+016002
Y+011938
Y+012700
Y+013462
Y+014224
Y+014986
Y+015748
Y+016510
X+028829Y+016383
Y+015621
Y+015875
Y+014859
Y+015113
Y+014351
Y+014097
Y+013589
Y+013335
Y+016129
Y+015367
Y+014605
Y+013843
Y+013081
X+029083Y+016383
Y+015621
Y+015875
Y+014859
Y+015113
Y+014097
Y+014351
Y+013335
Y+013589
Y+016129
Y+015367
Y+014605
Y+013843
Y+013081
T06
X+028075Y+007404
X+028575Y+006904
X+027575
T07
X+028575Y+007404
X+028325
X+027825
X+027575
X+028075Y+006900
T08
X+028194Y+011557
Y+011049
Y+012065
Y+010541
T09
X+028448Y+012338
Y+010268
T10
X+029250Y+006975
Y+017250
X+029228Y+011823
Y+010783
X+022000Y+006975
Y+017250
T00
M30
